<svg xmlns="http://www.w3.org/2000/svg" viewBox="114 158 1378 2081" width="167" height="239">
    <path d="M880 2218 c-28 -15 -56 -41 -75 -70 -19 -30 -37 -47 -51 -47 -32 -1
-62 -41 -69 -91 -6 -39 -13 -78 -30 -166 -4 -16 -15 -23 -44 -28 -102 -16
-188 -145 -261 -391 -23 -77 -69 -198 -102 -270 -136 -295 -160 -421 -111
-595 50 -182 223 -343 418 -390 84 -20 407 -14 498 9 259 67 438 286 439 541
1 139 -42 252 -157 415 -124 176 -147 216 -185 330 -85 253 -193 387 -324 404
-43 5 -51 9 -48 26 10 74 23 80 75 41 86 -65 203 -50 283 36 34 36 47 58 94
161 40 86 36 97 -32 97 -29 0 -102 3 -163 6 -103 6 -113 4 -155 -18z"
      fill="none"
      stroke="black"
      stroke-width="10"
    />
</svg>
