<?xml version="1.0" encoding="UTF-8"?>
<svg xmlns="http://www.w3.org/2000/svg" viewBox="0 0 512 512" width="512" height="512">
  <path d="M 278,19 L 277,20 L 276,20 L 275,20 L 274,20 L 273,21 L 272,21 L 271,22 L 270,22 L 269,23 L 268,23 L 267,24 L 266,25 L 265,25 L 264,26 L 263,27 L 262,27 L 261,28 L 260,29 L 259,30 L 258,30 L 257,30 L 256,31 L 255,32 L 254,33 L 253,34 L 252,34 L 251,35 L 250,36 L 249,36 L 248,37 L 247,38 L 246,39 L 245,40 L 244,40 L 243,41 L 242,41 L 241,42 L 240,43 L 239,44 L 238,44 L 237,45 L 236,45 L 235,46 L 234,46 L 233,47 L 232,48 L 231,48 L 230,49 L 229,50 L 228,50 L 227,51 L 226,52 L 225,52 L 224,53 L 223,54 L 222,54 L 221,55 L 220,56 L 219,56 L 218,57 L 217,58 L 216,59 L 215,59 L 214,60 L 213,61 L 212,61 L 211,62 L 210,63 L 209,64 L 208,64 L 207,65 L 206,66 L 205,67 L 204,68 L 203,69 L 202,69 L 201,70 L 200,71 L 199,72 L 198,73 L 197,74 L 196,74 L 196,75 L 195,76 L 194,76 L 194,77 L 193,78 L 192,78 L 192,79 L 191,80 L 190,81 L 189,82 L 188,82 L 187,83 L 186,84 L 185,85 L 184,86 L 183,87 L 182,87 L 181,87 L 180,86 L 181,85 L 181,84 L 181,83 L 181,82 L 181,81 L 182,80 L 182,79 L 182,78 L 182,77 L 183,76 L 183,75 L 183,74 L 183,73 L 183,72 L 183,71 L 183,70 L 183,69 L 183,68 L 183,67 L 183,66 L 182,65 L 182,64 L 182,63 L 181,62 L 181,61 L 181,60 L 181,59 L 181,58 L 180,57 L 179,56 L 179,55 L 178,54 L 177,53 L 176,52 L 176,51 L 175,50 L 174,49 L 173,49 L 172,48 L 171,48 L 170,48 L 169,47 L 168,47 L 167,46 L 166,46 L 165,46 L 164,46 L 163,46 L 162,45 L 161,45 L 160,45 L 159,45 L 158,45 L 157,46 L 156,46 L 155,46 L 154,46 L 153,46 L 152,46 L 151,47 L 150,47 L 149,48 L 148,48 L 147,49 L 146,49 L 145,50 L 144,50 L 143,51 L 142,52 L 141,53 L 140,54 L 140,55 L 139,56 L 139,57 L 138,58 L 138,59 L 138,60 L 137,61 L 137,62 L 136,63 L 136,64 L 136,65 L 135,66 L 135,67 L 134,68 L 134,69 L 134,70 L 134,71 L 133,72 L 133,73 L 132,74 L 132,75 L 132,76 L 132,77 L 132,78 L 131,79 L 131,80 L 131,81 L 130,82 L 130,83 L 130,84 L 130,85 L 129,86 L 129,87 L 128,88 L 128,89 L 128,90 L 128,91 L 127,92 L 127,93 L 126,94 L 126,95 L 126,96 L 126,97 L 125,98 L 125,99 L 125,100 L 125,101 L 124,102 L 124,103 L 124,104 L 124,105 L 124,106 L 123,107 L 123,108 L 122,109 L 122,110 L 121,111 L 120,112 L 119,112 L 118,112 L 117,112 L 116,112 L 115,112 L 114,112 L 113,112 L 112,112 L 111,112 L 110,112 L 109,112 L 108,112 L 107,112 L 106,112 L 105,112 L 104,113 L 103,113 L 102,113 L 101,113 L 100,113 L 99,114 L 98,114 L 97,114 L 96,114 L 95,114 L 94,114 L 93,114 L 92,115 L 91,115 L 90,115 L 89,116 L 88,116 L 87,116 L 86,116 L 85,117 L 84,117 L 83,117 L 82,118 L 81,118 L 80,118 L 79,119 L 78,119 L 77,119 L 76,120 L 75,120 L 74,120 L 73,121 L 72,121 L 71,122 L 70,122 L 69,122 L 68,123 L 67,124 L 66,124 L 65,124 L 64,125 L 63,126 L 62,126 L 61,127 L 60,128 L 59,129 L 58,129 L 58,130 L 57,131 L 56,132 L 55,133 L 54,134 L 54,135 L 53,136 L 52,137 L 52,138 L 52,139 L 51,140 L 51,141 L 50,142 L 50,143 L 50,144 L 50,145 L 50,146 L 50,147 L 50,148 L 49,149 L 49,150 L 49,151 L 49,152 L 49,153 L 49,154 L 49,155 L 48,156 L 48,157 L 48,158 L 47,159 L 47,160 L 47,161 L 46,162 L 46,163 L 46,164 L 45,165 L 45,166 L 44,167 L 44,168 L 44,169 L 44,170 L 43,171 L 43,172 L 43,173 L 42,174 L 42,175 L 42,176 L 42,177 L 42,178 L 42,179 L 42,180 L 42,181 L 42,182 L 41,183 L 41,184 L 41,185 L 41,186 L 41,187 L 41,188 L 41,189 L 40,190 L 40,191 L 40,192 L 40,193 L 40,194 L 40,195 L 40,196 L 40,197 L 40,198 L 40,199 L 39,200 L 39,201 L 39,202 L 39,203 L 39,204 L 39,205 L 38,206 L 38,207 L 38,208 L 38,209 L 38,210 L 38,211 L 38,212 L 38,213 L 38,214 L 37,215 L 37,216 L 37,217 L 37,218 L 36,219 L 36,220 L 36,221 L 36,222 L 35,223 L 35,224 L 35,225 L 35,226 L 34,227 L 34,228 L 34,229 L 34,230 L 34,231 L 34,232 L 34,233 L 34,234 L 34,235 L 33,236 L 33,237 L 33,238 L 33,239 L 33,240 L 34,241 L 34,242 L 34,243 L 34,244 L 34,245 L 35,246 L 35,247 L 36,248 L 36,249 L 37,250 L 37,251 L 38,252 L 38,253 L 39,254 L 40,255 L 40,256 L 41,257 L 42,258 L 42,259 L 43,260 L 44,261 L 45,262 L 46,263 L 47,264 L 48,265 L 49,265 L 50,266 L 51,266 L 52,267 L 53,268 L 54,268 L 55,269 L 56,269 L 57,270 L 58,270 L 59,271 L 60,271 L 61,271 L 62,272 L 63,272 L 64,272 L 65,273 L 66,273 L 67,273 L 68,273 L 69,273 L 70,274 L 71,274 L 72,274 L 73,275 L 74,275 L 75,275 L 76,275 L 77,275 L 78,276 L 79,276 L 80,276 L 81,277 L 82,277 L 83,278 L 83,279 L 83,280 L 83,281 L 83,282 L 83,283 L 83,284 L 83,285 L 83,286 L 83,287 L 83,288 L 83,289 L 83,290 L 83,291 L 83,292 L 83,293 L 83,294 L 83,295 L 84,296 L 84,297 L 84,298 L 84,299 L 84,300 L 84,301 L 85,302 L 85,303 L 85,304 L 86,305 L 86,306 L 86,307 L 87,308 L 87,309 L 88,310 L 88,311 L 88,312 L 89,313 L 89,314 L 90,315 L 91,316 L 91,317 L 92,318 L 92,319 L 93,320 L 93,321 L 93,322 L 94,323 L 94,324 L 94,325 L 94,326 L 95,327 L 95,328 L 95,329 L 96,330 L 96,331 L 96,332 L 97,333 L 98,334 L 98,335 L 99,336 L 99,337 L 100,338 L 100,339 L 101,340 L 102,341 L 103,342 L 104,343 L 105,344 L 106,345 L 107,346 L 108,347 L 109,347 L 110,348 L 111,349 L 112,350 L 113,351 L 114,352 L 115,353 L 116,354 L 117,355 L 118,356 L 119,357 L 120,358 L 120,359 L 121,360 L 122,360 L 123,361 L 124,362 L 125,363 L 126,363 L 127,364 L 128,365 L 129,365 L 130,366 L 131,367 L 132,367 L 133,368 L 134,368 L 135,369 L 136,369 L 137,369 L 138,370 L 139,370 L 140,371 L 141,371 L 142,372 L 143,372 L 144,373 L 145,373 L 146,374 L 147,374 L 148,374 L 149,375 L 150,375 L 151,375 L 152,376 L 153,376 L 154,377 L 155,377 L 156,377 L 157,377 L 158,378 L 159,378 L 160,379 L 160,380 L 160,381 L 159,382 L 158,383 L 157,384 L 157,385 L 156,386 L 156,387 L 156,388 L 155,389 L 154,390 L 154,391 L 153,392 L 152,393 L 152,394 L 152,395 L 152,396 L 152,397 L 152,398 L 152,399 L 152,400 L 152,401 L 153,402 L 153,403 L 154,404 L 154,405 L 155,406 L 156,407 L 157,408 L 158,409 L 159,410 L 160,411 L 161,411 L 162,412 L 163,413 L 164,414 L 165,415 L 166,416 L 166,417 L 165,418 L 164,419 L 163,420 L 162,421 L 161,422 L 160,423 L 159,424 L 158,425 L 157,426 L 157,427 L 157,428 L 156,429 L 156,430 L 155,431 L 155,432 L 154,433 L 154,434 L 153,435 L 153,436 L 153,437 L 152,438 L 152,439 L 151,440 L 151,441 L 151,442 L 151,443 L 151,444 L 150,445 L 150,446 L 150,447 L 150,448 L 150,449 L 150,450 L 150,451 L 150,452 L 150,453 L 151,454 L 151,455 L 151,456 L 152,457 L 152,458 L 153,459 L 153,460 L 154,461 L 154,462 L 155,463 L 156,464 L 157,465 L 158,466 L 159,467 L 160,467 L 161,468 L 162,469 L 163,469 L 164,470 L 165,470 L 166,471 L 167,471 L 168,471 L 169,471 L 170,471 L 171,471 L 172,471 L 173,471 L 174,472 L 175,472 L 176,472 L 177,471 L 178,471 L 179,471 L 180,471 L 181,471 L 182,471 L 183,471 L 184,471 L 185,471 L 186,471 L 187,471 L 188,471 L 189,471 L 190,471 L 191,471 L 192,470 L 193,470 L 194,470 L 195,470 L 196,469 L 197,469 L 198,469 L 199,469 L 200,469 L 201,468 L 202,468 L 203,467 L 204,467 L 205,467 L 206,467 L 207,467 L 208,467 L 209,466 L 210,466 L 211,465 L 212,465 L 213,465 L 214,465 L 215,464 L 216,464 L 217,464 L 218,463 L 219,463 L 220,463 L 221,463 L 222,464 L 223,465 L 224,465 L 225,466 L 226,467 L 227,468 L 228,469 L 229,470 L 230,471 L 231,472 L 232,473 L 233,474 L 234,475 L 235,476 L 236,477 L 237,478 L 238,479 L 239,480 L 240,480 L 241,481 L 242,482 L 243,483 L 244,483 L 245,484 L 246,484 L 247,485 L 248,485 L 249,486 L 250,486 L 251,487 L 252,487 L 253,487 L 254,487 L 255,488 L 256,488 L 257,488 L 258,488 L 259,488 L 260,488 L 261,488 L 262,489 L 263,489 L 264,489 L 265,489 L 266,488 L 267,488 L 268,488 L 269,488 L 270,488 L 271,488 L 272,488 L 273,487 L 274,487 L 275,487 L 276,487 L 277,487 L 278,486 L 279,486 L 280,485 L 281,485 L 282,485 L 283,485 L 284,484 L 285,484 L 286,484 L 287,483 L 288,483 L 289,483 L 290,482 L 291,482 L 292,482 L 293,481 L 294,481 L 295,481 L 296,481 L 297,481 L 298,480 L 299,480 L 300,480 L 301,479 L 302,479 L 303,479 L 304,479 L 305,479 L 306,479 L 307,479 L 308,478 L 309,478 L 310,477 L 311,477 L 312,477 L 313,477 L 314,477 L 315,477 L 316,476 L 317,476 L 318,476 L 319,476 L 320,475 L 321,475 L 322,475 L 323,475 L 324,474 L 325,474 L 326,474 L 327,474 L 328,473 L 329,473 L 330,473 L 331,473 L 332,472 L 333,472 L 334,472 L 335,472 L 336,471 L 337,471 L 338,471 L 339,471 L 340,471 L 341,471 L 342,471 L 343,471 L 344,470 L 345,470 L 346,470 L 347,470 L 348,470 L 349,470 L 350,469 L 351,469 L 352,469 L 353,469 L 354,469 L 355,469 L 356,469 L 357,468 L 358,468 L 359,468 L 360,468 L 361,467 L 362,467 L 363,467 L 364,467 L 365,466 L 366,466 L 367,466 L 368,465 L 369,465 L 370,465 L 371,465 L 372,464 L 373,464 L 374,463 L 375,463 L 376,462 L 377,462 L 378,461 L 379,460 L 380,459 L 381,458 L 382,457 L 383,457 L 384,456 L 385,455 L 386,454 L 387,454 L 388,453 L 388,452 L 389,451 L 389,450 L 390,449 L 391,448 L 392,447 L 393,446 L 393,445 L 394,444 L 395,443 L 395,442 L 396,441 L 397,440 L 397,439 L 398,438 L 398,437 L 399,436 L 399,435 L 400,434 L 401,433 L 401,432 L 402,431 L 403,430 L 404,429 L 405,428 L 405,427 L 406,426 L 407,425 L 408,424 L 409,423 L 410,422 L 411,422 L 412,422 L 413,421 L 414,421 L 415,421 L 416,421 L 417,421 L 418,421 L 419,421 L 420,421 L 421,421 L 422,420 L 423,420 L 424,420 L 425,420 L 426,419 L 427,419 L 428,419 L 429,419 L 430,419 L 431,418 L 432,418 L 433,417 L 434,417 L 435,417 L 436,417 L 437,417 L 438,416 L 439,415 L 440,415 L 441,415 L 442,414 L 443,413 L 444,413 L 445,412 L 446,412 L 447,411 L 448,410 L 449,410 L 450,409 L 451,408 L 452,407 L 453,406 L 454,405 L 455,404 L 456,403 L 457,402 L 458,401 L 459,401 L 460,400 L 461,399 L 462,398 L 463,397 L 464,397 L 465,396 L 466,395 L 467,394 L 467,393 L 468,392 L 469,391 L 470,390 L 470,389 L 471,388 L 471,387 L 472,386 L 472,385 L 473,384 L 473,383 L 473,382 L 474,381 L 474,380 L 475,379 L 475,378 L 476,377 L 476,376 L 477,375 L 477,374 L 477,373 L 477,372 L 478,371 L 478,370 L 478,369 L 478,368 L 479,367 L 479,366 L 479,365 L 479,364 L 479,363 L 479,362 L 479,361 L 479,360 L 479,359 L 479,358 L 479,357 L 479,356 L 479,355 L 479,354 L 478,353 L 478,352 L 478,351 L 478,350 L 477,349 L 477,348 L 477,347 L 476,346 L 476,345 L 475,344 L 475,343 L 475,342 L 474,341 L 473,340 L 473,339 L 472,338 L 471,337 L 470,336 L 469,335 L 468,334 L 467,333 L 466,333 L 465,332 L 464,331 L 463,331 L 462,330 L 461,330 L 460,329 L 459,329 L 458,328 L 457,328 L 456,328 L 455,328 L 454,327 L 453,326 L 453,325 L 453,324 L 453,323 L 453,322 L 453,321 L 453,320 L 453,319 L 453,318 L 453,317 L 453,316 L 453,315 L 453,314 L 453,313 L 453,312 L 452,311 L 452,310 L 452,309 L 452,308 L 452,307 L 453,306 L 453,305 L 453,304 L 453,303 L 453,302 L 453,301 L 453,300 L 453,299 L 453,298 L 453,297 L 453,296 L 453,295 L 453,294 L 452,293 L 452,292 L 452,291 L 452,290 L 451,289 L 451,288 L 451,287 L 451,286 L 451,285 L 450,284 L 450,283 L 449,282 L 449,281 L 449,280 L 449,279 L 448,278 L 448,277 L 448,276 L 448,275 L 448,274 L 448,273 L 447,272 L 447,271 L 447,270 L 447,269 L 446,268 L 446,267 L 445,266 L 445,265 L 445,264 L 445,263 L 444,262 L 444,261 L 443,260 L 443,259 L 442,258 L 442,257 L 441,256 L 441,255 L 440,254 L 440,253 L 439,252 L 439,251 L 438,250 L 438,249 L 437,248 L 437,247 L 436,246 L 436,245 L 435,244 L 435,243 L 434,242 L 433,241 L 433,240 L 432,239 L 432,238 L 431,237 L 430,236 L 429,235 L 429,234 L 428,233 L 427,232 L 426,231 L 425,230 L 425,229 L 424,228 L 423,227 L 422,226 L 421,225 L 420,224 L 419,223 L 418,222 L 417,221 L 417,220 L 416,220 L 415,219 L 414,218 L 413,217 L 413,216 L 412,215 L 411,214 L 410,214 L 409,213 L 408,212 L 407,211 L 406,210 L 405,209 L 404,208 L 403,208 L 402,207 L 401,206 L 400,205 L 399,204 L 398,204 L 397,203 L 396,202 L 395,202 L 394,201 L 393,200 L 392,200 L 391,199 L 390,199 L 389,198 L 388,198 L 387,197 L 386,197 L 385,196 L 384,196 L 383,195 L 382,194 L 381,194 L 380,193 L 379,193 L 378,192 L 377,192 L 376,191 L 375,191 L 374,190 L 373,190 L 372,190 L 371,189 L 370,189 L 369,188 L 368,188 L 367,188 L 366,187 L 365,187 L 364,186 L 363,186 L 362,186 L 361,186 L 360,185 L 359,185 L 358,185 L 357,184 L 356,184 L 355,184 L 354,184 L 353,184 L 352,184 L 351,183 L 350,183 L 349,183 L 348,183 L 347,183 L 346,183 L 345,183 L 344,183 L 343,183 L 342,183 L 341,183 L 340,183 L 339,182 L 338,182 L 337,182 L 336,182 L 335,182 L 334,182 L 333,182 L 332,182 L 331,182 L 330,182 L 329,183 L 328,183 L 327,183 L 326,183 L 325,183 L 324,183 L 323,183 L 322,183 L 321,184 L 320,184 L 319,184 L 318,184 L 317,184 L 316,184 L 315,184 L 314,184 L 313,185 L 312,185 L 311,185 L 310,185 L 309,185 L 308,186 L 307,186 L 306,186 L 305,186 L 304,186 L 303,186 L 302,186 L 301,187 L 300,187 L 299,187 L 298,188 L 297,188 L 296,188 L 295,188 L 294,188 L 293,189 L 292,189 L 291,189 L 290,190 L 289,190 L 288,190 L 287,190 L 286,190 L 285,191 L 284,191 L 283,191 L 282,192 L 281,192 L 280,192 L 279,192 L 278,193 L 277,193 L 276,193 L 275,193 L 274,194 L 273,194 L 272,194 L 271,194 L 270,194 L 269,195 L 268,195 L 267,195 L 266,196 L 265,196 L 264,196 L 263,196 L 262,196 L 261,196 L 260,197 L 259,197 L 258,197 L 257,197 L 256,198 L 255,198 L 254,198 L 253,198 L 252,198 L 251,198 L 250,198 L 249,198 L 248,197 L 247,197 L 246,197 L 245,197 L 244,196 L 243,196 L 242,196 L 241,195 L 240,195 L 239,194 L 238,194 L 237,194 L 236,193 L 235,193 L 234,192 L 233,192 L 232,192 L 231,191 L 230,191 L 229,190 L 228,190 L 227,190 L 226,190 L 225,190 L 224,189 L 223,189 L 222,189 L 221,189 L 220,188 L 219,188 L 218,188 L 217,188 L 216,188 L 215,188 L 214,188 L 213,188 L 212,188 L 211,188 L 210,187 L 209,187 L 208,187 L 207,187 L 206,186 L 205,186 L 204,185 L 203,184 L 203,183 L 202,182 L 201,181 L 200,180 L 199,179 L 199,178 L 198,177 L 198,176 L 197,175 L 196,174 L 196,173 L 195,172 L 195,171 L 195,170 L 194,169 L 194,168 L 193,167 L 193,166 L 193,165 L 193,164 L 192,163 L 192,162 L 192,161 L 191,160 L 191,159 L 191,158 L 191,157 L 191,156 L 191,155 L 191,154 L 191,153 L 191,152 L 191,151 L 191,150 L 192,149 L 193,148 L 193,147 L 194,146 L 195,145 L 196,144 L 197,144 L 198,143 L 199,143 L 200,142 L 201,142 L 202,141 L 203,140 L 204,139 L 205,139 L 206,138 L 207,137 L 208,137 L 209,136 L 210,135 L 211,134 L 212,134 L 213,133 L 214,133 L 215,132 L 216,131 L 217,131 L 218,130 L 219,130 L 220,129 L 221,129 L 222,128 L 223,128 L 224,127 L 225,126 L 226,126 L 227,125 L 228,125 L 229,124 L 230,124 L 231,123 L 232,122 L 233,122 L 234,121 L 235,120 L 236,120 L 237,119 L 238,119 L 239,118 L 240,118 L 241,117 L 242,117 L 243,116 L 244,115 L 245,115 L 246,115 L 247,115 L 248,114 L 249,113 L 250,113 L 251,112 L 252,112 L 253,111 L 254,111 L 255,111 L 256,111 L 257,110 L 258,109 L 259,109 L 260,108 L 261,108 L 262,107 L 263,107 L 264,106 L 265,106 L 266,106 L 267,105 L 268,105 L 269,104 L 270,103 L 271,103 L 272,102 L 273,102 L 274,102 L 275,101 L 276,101 L 277,100 L 278,99 L 279,99 L 280,98 L 281,98 L 282,97 L 283,97 L 284,96 L 285,96 L 286,95 L 286,94 L 287,93 L 288,93 L 289,92 L 290,91 L 291,90 L 292,89 L 293,88 L 294,87 L 295,86 L 295,85 L 296,84 L 297,83 L 297,82 L 298,81 L 298,80 L 299,79 L 299,78 L 299,77 L 300,76 L 300,75 L 300,74 L 301,73 L 301,72 L 301,71 L 301,70 L 301,69 L 301,68 L 301,67 L 301,66 L 301,65 L 301,64 L 301,63 L 301,62 L 301,61 L 301,60 L 301,59 L 301,58 L 301,57 L 300,56 L 300,55 L 300,54 L 300,53 L 300,52 L 299,51 L 299,50 L 299,49 L 299,48 L 299,47 L 298,46 L 298,45 L 297,44 L 297,43 L 297,42 L 296,41 L 296,40 L 296,39 L 295,38 L 295,37 L 295,36 L 295,35 L 294,34 L 293,33 L 293,32 L 292,31 L 291,30 L 290,29 L 289,28 L 288,27 L 287,26 L 287,25 L 286,24 L 285,23 L 285,22 L 284,21 L 283,21 L 282,20 L 281,20 L 280,19 L 279,19 Z" fill="none" stroke="black" stroke-width="1"/>
</svg>