<svg width="9458" height="4737" viewBox="322 332 9458 4737" xmlns="http://www.w3.org/2000/svg">  <title>Hammer outline</title>
  <path fill="none" stroke="#000000" stroke-width="14.85" d="M7566 5048 c-10 -39 -7 -97 8 -132 8 -19 51 -74 97 -123 363 -391 636 -859 655 -1128 12 -168 -49 -331 -170 -450 -115 -114 -222 -158 -443 -185 -44 -5 -184 -23 -310 -39 -125 -17 -358 -46 -518 -66 -159 -20 -380 -47 -490 -61 -110 -13 -380 -47 -600 -74 -394 -49 -567 -71 -715 -90 -41 -6 -129 -17 -195 -25 -66 -7 -210 -26 -320 -40 -110 -14 -234 -30 -275 -35 -41 -5 -165 -21 -275 -35 -110 -14 -236 -30 -280 -35 -44 -6 -124 -16 -178 -23 l-99 -14 -24 36 c-38 57 -87 85 -158 89 -69 4 -141 -4 -926 -103 -63 -8 -194 -24 -290 -35 -96 -11 -227 -27 -290 -35 -158 -20 -350 -44 -440 -55 -41 -5 -165 -21 -275 -36 -188 -26 -289 -31 -447 -25 -79 3 -143 -21 -196 -72 -41 -38 -79 -111 -88 -164 -9 -57 13 -294 47 -508 47 -296 65 -379 94 -424 52 -83 179 -151 282 -151 46 0 69 7 120 35 35 19 77 35 92 35 28 0 177 18 511 60 85 11 208 27 273 35 64 8 170 22 235 30 64 8 194 24 287 35 94 11 240 29 325 40 297 38 386 50 535 69 83 11 176 22 209 26 134 15 216 65 230 139 l6 32 138 18 c75 10 207 26 292 37 85 11 205 26 265 34 61 7 135 17 165 20 30 3 105 13 165 20 61 8 241 31 400 50 160 19 342 42 405 50 63 8 264 33 445 55 182 22 377 47 435 55 198 26 465 60 1045 130 160 19 342 42 405 50 63 8 191 24 284 36 296 37 395 17 507 -101 104 -111 149 -249 128 -395 -14 -105 -57 -184 -160 -291 -119 -125 -120 -130 -85 -409 14 -116 32 -268 41 -338 18 -150 32 -189 77 -217 44 -27 65 -26 350 14 134 19 304 40 378 46 240 21 321 49 418 146 66 66 112 148 112 199 0 17 -7 71 -15 120 -8 50 -21 149 -30 220 -26 234 -46 283 -140 341 -178 110 -225 157 -267 269 -20 51 -23 79 -23 185 0 119 2 128 32 193 18 38 49 96 70 130 139 227 157 387 92 797 -65 410 -158 685 -332 985 -212 364 -592 726 -956 910 -41 20 -142 64 -225 98 l-151 62 -131 3 c-130 3 -131 3 -138 -20z"/>
</svg>