<svg xmlns="http://www.w3.org/2000/svg" viewBox="114 158 1378 2081" width="167" height="239">
  <path d="M726.0000 179.0000 C754.0000 194.0000 782.0000 220.0000 801.0000 249.0000 C820.0000 279.0000 838.0000 296.0000 852.0000 296.0000 C884.0000 297.0000 914.0000 337.0000 921.0000 387.0000 C927.0000 426.0000 934.0000 465.0000 951.0000 553.0000 C955.0000 569.0000 966.0000 576.0000 995.0000 581.0000 C1097.0000 597.0000 1183.0000 726.0000 1256.0000 972.0000 C1279.0000 1049.0000 1325.0000 1170.0000 1358.0000 1242.0000 C1494.0000 1537.0000 1518.0000 1663.0000 1469.0000 1837.0000 C1419.0000 2019.0000 1246.0000 2180.0000 1051.0000 2227.0000 C967.0000 2247.0000 644.0000 2241.0000 553.0000 2218.0000 C294.0000 2151.0000 115.0000 1932.0000 114.0000 1677.0000 C113.0000 1538.0000 156.0000 1425.0000 271.0000 1262.0000 C395.0000 1086.0000 418.0000 1046.0000 456.0000 932.0000 C541.0000 679.0000 649.0000 545.0000 780.0000 528.0000 C823.0000 523.0000 831.0000 519.0000 828.0000 502.0000 C818.0000 428.0000 805.0000 422.0000 753.0000 461.0000 C667.0000 526.0000 550.0000 511.0000 470.0000 425.0000 C436.0000 389.0000 423.0000 367.0000 376.0000 264.0000 C336.0000 178.0000 340.0000 167.0000 408.0000 167.0000 C437.0000 167.0000 510.0000 164.0000 571.0000 161.0000 C674.0000 155.0000 684.0000 157.0000 726.0000 179.0000 Z"
    fill="none"
    stroke="black"
    stroke-width="10"
  />
</svg>
